<?xml version="1.0" standalone="no"?>
<!DOCTYPE svg PUBLIC "-//W3C//DTD SVG 20010904//EN"
 "http://www.w3.org/TR/2001/REC-SVG-20010904/DTD/svg10.dtd">
<svg version="1.0" xmlns="http://www.w3.org/2000/svg"
 width="567.000000pt" height="404.000000pt" viewBox="0 0 567.000000 404.000000"
 preserveAspectRatio="xMidYMid meet">

<g transform="translate(0.000000,404.000000) scale(0.100000,-0.100000)"
fill="#000000" stroke="none">
<path d="M2613 3148 c-25 -12 -36 -36 -59 -131 -16 -65 -17 -67 -35 -51 -10 9
-16 20 -13 25 3 5 0 18 -6 29 -10 18 -19 21 -68 18 l-57 -3 0 -35 c0 -34 2
-35 40 -38 56 -5 68 -17 48 -48 -12 -20 -16 -57 -16 -195 -1 -157 1 -172 18
-185 46 -34 95 -3 95 59 l0 37 310 0 310 0 0 -39 c0 -45 20 -71 55 -71 40 0
52 23 58 112 8 99 -5 271 -21 291 -16 19 4 37 39 37 44 0 59 10 59 40 0 32
-14 40 -75 40 -34 0 -47 -5 -55 -20 -6 -11 -9 -24 -6 -29 3 -5 -3 -16 -13 -25
-18 -17 -20 -15 -37 61 -13 55 -26 86 -45 106 l-27 27 -239 -1 c-145 0 -247
-4 -260 -11z m501 -50 c7 -13 19 -45 25 -73 7 -27 14 -58 17 -67 5 -17 -13
-18 -286 -18 -273 0 -291 1 -286 18 3 9 10 40 17 67 23 101 7 95 269 95 227 0
230 0 244 -22z m-526 -204 c53 -37 7 -119 -52 -93 -40 19 -45 57 -12 86 32 27
35 28 64 7z m612 6 c46 -25 45 -76 -1 -100 -53 -29 -96 60 -47 94 27 19 24 19
48 6z m-155 -40 c4 -6 1 -17 -5 -25 -10 -12 -44 -15 -169 -15 -159 0 -189 6
-178 34 6 14 30 16 176 16 107 0 172 -4 176 -10z m-2 -69 c25 -25 -9 -31 -173
-31 -172 0 -205 7 -165 36 14 10 55 12 173 9 85 -2 160 -9 165 -14z"/>
<path d="M709 2263 c-12 -3 -18 -20 -22 -61 -12 -113 15 -1053 34 -1170 5 -35
7 -66 5 -71 -8 -12 16 -155 27 -163 6 -3 14 -26 17 -50 7 -37 8 -39 9 -11 0
17 5 34 10 37 5 3 14 -47 20 -112 18 -177 21 -228 15 -214 -13 27 -29 10 -31
-33 -2 -44 -1 -45 30 -47 53 -2 56 -3 69 -16 18 -18 142 -16 158 3 10 12 10
42 1 143 -6 70 -15 226 -21 347 -6 121 -13 236 -16 256 -3 23 -1 39 8 47 22
18 170 64 179 55 10 -10 13 -261 4 -284 -3 -10 -2 -20 4 -24 7 -4 11 -56 11
-140 0 -210 10 -225 159 -225 l66 0 3 279 c2 153 7 323 13 377 5 55 9 106 9
114 0 8 0 56 0 105 1 108 27 651 36 717 5 40 3 48 -15 57 -26 15 -56 14 -69
-2 -6 -7 -20 -111 -32 -232 -29 -297 -30 -311 -39 -296 -5 7 -11 -18 -15 -59
-11 -111 -22 -128 -32 -50 -7 55 -9 60 -15 35 -4 -16 -7 -46 -8 -66 -1 -22 -7
-39 -15 -42 -9 -4 -13 -14 -9 -29 4 -18 2 -20 -6 -8 -5 8 -7 34 -4 57 3 23 2
50 -2 60 -12 31 -27 -21 -34 -122 l-6 -89 -85 -23 c-47 -12 -93 -23 -102 -23
-18 0 -26 40 -33 185 -3 44 -9 139 -15 210 -5 72 -14 204 -20 295 -13 227 -8
212 -93 248 -75 32 -121 43 -148 35z m688 -480 c-3 -10 -5 -4 -5 12 0 17 2 24
5 18 2 -7 2 -21 0 -30z m-130 -1203 l-3 -25 -12 28 c-7 17 -11 71 -11 130 l2
102 13 -105 c8 -58 13 -116 11 -130z m30 48 c-2 -13 -4 -5 -4 17 -1 22 1 32 4
23 2 -10 2 -28 0 -40z"/>
<path d="M3182 2251 c-114 -39 -262 -231 -356 -461 -43 -104 -46 -94 -46 171
0 180 -2 208 -16 213 -22 8 -34 -1 -34 -27 0 -12 -5 -29 -10 -37 -8 -12 -10
-10 -11 10 0 23 -1 24 -10 5 -7 -14 -8 -3 -4 38 3 31 1 57 -4 57 -13 0 -21
-64 -21 -175 0 -124 -10 -211 -21 -193 -5 7 -9 36 -10 63 -2 42 -3 37 -12 -34
-11 -102 -23 -90 -33 34 -7 95 2 111 16 28 6 -36 8 -11 9 102 0 101 -3 145 -9
135 -7 -10 -8 0 -4 33 6 38 4 47 -9 47 -8 0 -18 -8 -22 -17 -9 -24 -24 -466
-25 -733 0 -205 24 -880 35 -985 9 -79 7 -78 143 -74 66 2 124 7 128 12 4 4 2
51 -4 105 -13 107 -16 312 -4 312 4 0 22 -9 40 -20 34 -21 34 -21 65 -1 37 23
129 124 207 227 110 145 283 458 319 577 36 118 54 288 38 351 -10 36 -129
166 -200 220 -46 34 -75 37 -135 17z m39 -65 c-12 -14 -85 -56 -98 -56 -13 0
23 33 56 50 43 23 58 25 42 6z m124 -86 c12 -69 -6 -157 -72 -350 -8 -25 -32
-72 -53 -105 -20 -33 -70 -115 -109 -182 -80 -135 -217 -333 -230 -333 -5 0
-3 30 4 68 35 181 98 376 176 541 27 57 47 106 45 108 -2 3 -21 -26 -42 -64
-38 -67 -39 -68 -45 -38 -4 17 -7 25 -8 19 0 -5 -8 -19 -16 -30 -9 -10 4 22
29 71 73 149 200 306 262 325 48 14 52 12 59 -30z m25 -120 l-11 -25 6 25 c2
14 6 43 7 65 l1 40 4 -40 c2 -23 -1 -52 -7 -65z m107 22 c10 -30 11 -31 7 -7
-4 25 -3 28 8 17 25 -25 14 -165 -21 -274 -33 -102 -58 -141 -45 -71 5 29 -8
10 -52 -77 -33 -63 -65 -116 -73 -119 -10 -2 -12 1 -8 13 19 45 19 52 3 32 -9
-11 -16 -17 -16 -13 0 12 80 167 85 167 3 0 1 -9 -5 -20 -6 -12 -10 -33 -8
-48 2 -21 11 -8 39 63 47 117 59 175 59 292 0 99 6 109 27 45z m-516 -85 c-10
-9 -11 -8 -5 6 3 10 9 15 12 12 3 -3 0 -11 -7 -18z m42 -72 c-3 -9 -8 -14 -10
-11 -3 3 -2 9 2 15 9 16 15 13 8 -4z m-83 -66 c-16 -35 -27 -53 -24 -39 9 39
44 114 49 108 3 -3 -8 -34 -25 -69z m283 -234 c-3 -9 -8 -14 -10 -11 -3 3 -2
9 2 15 9 16 15 13 8 -4z m-49 -220 c-9 -14 -18 -25 -21 -25 -5 0 5 18 20 38
17 22 18 13 1 -13z"/>
<path d="M3179 2021 c-65 -72 -97 -121 -80 -121 12 0 71 84 71 99 0 6 4 11 9
11 5 0 19 14 31 30 32 45 18 36 -31 -19z"/>
<path d="M1276 2233 c-11 -28 10 -35 22 -8 9 20 9 25 -2 25 -8 0 -17 -8 -20
-17z"/>
<path d="M4692 2228 c-14 -37 -24 -145 -16 -184 7 -37 7 -37 20 -13 11 19 13
21 14 6 0 -28 20 -9 20 19 0 13 5 24 10 24 6 0 10 -9 10 -19 0 -11 6 -21 13
-23 8 -3 14 -46 18 -144 4 -76 12 -193 17 -259 13 -141 22 -453 12 -410 -5 24
-8 17 -11 -35 -3 -36 -1 -71 4 -77 5 -7 6 -30 2 -50 -10 -54 -20 -28 -40 102
-27 168 -33 165 -28 -10 2 -88 3 -158 0 -155 -2 3 -38 91 -80 195 -69 175
-103 274 -217 643 -22 73 -50 142 -60 152 -23 23 -89 27 -108 8 -10 -10 -16
-7 -28 11 -22 31 -81 56 -99 41 -18 -15 -35 -98 -34 -168 0 -43 3 -52 10 -37
7 15 8 10 6 -22 -4 -72 9 -48 21 38 7 44 15 85 18 91 9 15 54 -109 54 -149 0
-18 5 -33 10 -33 6 0 11 -26 12 -57 l1 -58 7 45 c6 42 7 43 14 18 5 -15 3 -56
-2 -90 -6 -35 -16 -116 -23 -180 -9 -83 -16 -118 -25 -118 -16 0 -44 -39 -44
-60 0 -13 2 -13 11 0 8 11 9 9 3 -10 -4 -14 -9 -31 -11 -37 -3 -7 1 -13 7 -13
16 0 7 -159 -9 -188 -7 -12 -10 37 -11 166 0 144 3 182 13 176 7 -5 6 0 -3 11
-14 17 -16 10 -27 -76 -6 -52 -12 -111 -12 -133 -1 -29 -4 -37 -15 -33 -12 5
-16 -5 -19 -41 -2 -26 -3 18 -1 98 2 80 6 172 8 205 l6 60 -14 -44 c-8 -24
-16 -76 -17 -115 -1 -49 -7 -77 -18 -90 -13 -15 -16 -45 -15 -180 0 -88 4
-183 8 -211 4 -27 11 -84 16 -125 18 -143 23 -165 45 -169 55 -10 125 -5 139
9 18 18 21 73 18 415 -2 138 2 318 8 400 5 83 10 164 11 180 1 21 5 12 14 -30
37 -171 195 -586 283 -745 48 -87 164 -260 190 -283 16 -15 31 -18 69 -14 52
6 157 40 179 58 20 17 18 127 -6 277 -83 510 -114 809 -114 1102 -1 135 1 263
4 285 l5 40 -46 11 c-25 6 -73 15 -107 19 -59 7 -62 6 -70 -17z m-449 -255 c5
-26 2 -42 -7 -32 -9 11 -15 59 -7 59 5 0 11 -12 14 -27z m37 -163 c0 -38 -4
-59 -10 -55 -6 4 -7 28 -4 61 5 37 3 54 -5 54 -6 0 -11 7 -11 16 0 14 2 14 15
0 10 -10 15 -35 15 -76z m133 -115 c48 -176 105 -418 97 -408 -4 4 -20 46 -35
93 -16 47 -37 101 -47 120 l-20 35 6 -35 7 -35 -25 45 c-28 50 -34 35 -11 -30
8 -23 15 -59 15 -79 0 -20 7 -61 15 -91 8 -30 13 -56 10 -58 -8 -8 -55 79 -65
120 -13 56 -12 71 1 62 13 -8 7 15 -28 104 -13 35 -21 67 -17 70 4 4 9 1 11
-6 3 -6 9 -10 14 -6 5 3 9 -2 9 -10 0 -9 5 -16 10 -16 13 0 13 12 0 46 -6 15
-13 44 -15 63 -2 20 -6 52 -9 71 -6 32 -5 33 5 10 6 -14 20 -42 31 -63 11 -21
26 -61 34 -89 28 -94 24 -41 -6 83 -29 119 -34 147 -26 138 2 -2 20 -62 39
-134z m56 -435 c0 -8 -6 0 -14 19 -8 18 -15 36 -15 40 1 13 29 -45 29 -59z
m358 -112 c-3 -8 -6 -5 -6 6 -1 11 2 17 5 13 3 -3 4 -12 1 -19z m-297 -19 c0
-6 -4 -7 -10 -4 -5 3 -10 11 -10 16 0 6 5 7 10 4 6 -3 10 -11 10 -16z"/>
<path d="M3647 2159 c-10 -37 -8 -409 2 -409 12 0 29 47 37 104 4 32 9 44 15
35 7 -11 11 -8 16 11 7 24 8 23 14 -10 l6 -35 2 33 c1 35 21 36 21 1 0 -11 4
-18 9 -15 11 7 22 -523 13 -654 -7 -102 -8 -103 -16 -52 -4 28 -12 49 -17 46
-5 -3 -9 0 -9 6 0 6 -4 8 -10 5 -6 -4 -11 6 -11 22 -2 37 -6 14 -14 -70 -4
-37 -10 -65 -15 -62 -5 3 -11 -5 -13 -17 -2 -13 -5 38 -7 112 l-2 135 -15 -70
c-9 -42 -14 -123 -14 -205 0 -235 13 -560 22 -560 5 0 9 -13 9 -28 l0 -28 78
8 c42 4 93 11 112 16 l35 8 5 154 c7 201 3 1456 -5 1480 -6 19 -95 45 -196 57
-42 5 -47 3 -52 -18z m93 -1069 l-8 -35 -1 32 c-1 17 -4 40 -7 50 -6 16 -5 16
9 3 12 -12 14 -23 7 -50z m-43 -12 c-3 -8 -6 -5 -6 6 -1 11 2 17 5 13 3 -3 4
-12 1 -19z"/>
<path d="M1989 2131 c-47 -29 -87 -84 -135 -184 l-29 -58 -51 7 c-37 4 -54 2
-60 -7 -33 -54 -90 -369 -104 -578 -14 -208 -12 -341 6 -483 18 -140 41 -220
87 -296 51 -85 78 -95 212 -74 39 6 91 14 117 17 25 3 52 13 58 20 7 8 18 15
24 15 7 0 28 17 47 37 18 21 30 34 25 30 -5 -4 -14 -2 -21 3 -8 7 -16 2 -25
-16 -14 -25 -47 -50 -56 -41 -3 3 18 39 45 82 28 42 55 91 60 108 5 18 12 41
16 52 3 11 -12 -15 -35 -58 -24 -42 -60 -96 -81 -120 l-39 -42 40 68 c73 121
145 323 135 374 -4 22 -4 24 4 8 6 -15 8 -7 8 30 -1 28 5 77 13 110 11 51 14
56 21 35 7 -24 7 -24 9 5 2 29 2 29 9 5 6 -20 9 -13 15 35 13 111 28 172 36
150 7 -18 9 -17 16 10 l8 30 7 -30 7 -30 1 28 c1 36 21 35 21 -1 0 -15 5 -33
11 -39 8 -8 7 -33 -2 -89 -6 -44 -12 -91 -12 -106 0 -16 -4 -28 -8 -28 -4 0
-13 -28 -20 -62 -9 -46 -14 -57 -20 -42 -6 15 -8 12 -8 -13 -1 -17 -6 -35 -11
-38 -6 -3 -7 -17 -4 -30 3 -14 1 -39 -5 -56 -6 -18 -9 -34 -7 -36 5 -5 46 85
44 95 -2 4 5 19 15 33 41 61 77 340 77 594 0 285 -36 452 -108 503 -37 27
-244 102 -281 102 -15 0 -47 -13 -72 -29z m188 -541 c-4 -151 -11 -311 -17
-355 -30 -224 -92 -437 -162 -558 -33 -57 -42 -66 -54 -56 -13 11 -14 9 -9
-14 11 -41 -12 -33 -31 11 -8 20 -25 66 -36 102 -22 68 -46 109 -33 55 9 -37
25 -159 21 -163 -11 -10 -48 162 -53 246 l-6 102 37 0 c37 0 96 24 96 38 0 4
-13 13 -30 19 -26 10 -30 17 -30 47 0 19 -4 38 -10 41 -13 8 -13 115 -1 115 8
0 20 49 26 100 1 8 6 24 12 35 6 11 17 40 23 65 7 25 15 40 17 33 9 -26 42 28
73 123 54 163 99 277 127 319 l27 40 9 -35 c5 -20 7 -151 4 -310z m8 -682
c-40 -131 -64 -192 -96 -247 -40 -69 -98 -136 -83 -96 4 11 14 24 21 28 7 5
11 12 8 18 -6 9 44 111 58 117 4 2 7 12 7 22 0 25 11 51 19 46 3 -2 6 8 7 24
1 15 13 44 29 64 29 38 37 44 30 24z m-411 -135 c8 -37 11 -72 6 -77 -9 -9
-15 7 -29 88 -22 119 -2 110 23 -11z"/>
<path d="M1894 728 c8 -36 24 -78 30 -78 6 0 -22 92 -30 99 -4 3 -4 -6 0 -21z"/>
<path d="M2046 635 c-9 -26 -7 -32 5 -12 6 10 9 21 6 23 -2 3 -7 -2 -11 -11z"/>
<path d="M3764 1565 c0 -82 2 -115 3 -72 2 43 2 110 0 150 -1 40 -3 5 -3 -78z"/>
<path d="M4201 1448 c1 -47 3 -57 9 -38 12 36 12 88 0 95 -6 4 -10 -17 -9 -57z"/>
<path d="M2366 1149 c-4 -28 -5 -53 -3 -56 3 -2 8 19 12 47 4 28 5 53 2 56 -2
3 -7 -19 -11 -47z"/>
<path d="M2276 212 c-3 -3 -6 -21 -6 -41 0 -26 3 -32 9 -22 7 12 13 12 24 3
11 -10 14 -6 15 22 1 26 -3 35 -18 39 -10 3 -21 2 -24 -1z m34 -22 c0 -5 -7
-10 -15 -10 -8 0 -15 5 -15 10 0 6 7 10 15 10 8 0 15 -4 15 -10z"/>
<path d="M2525 212 c-3 -3 -5 -20 -5 -37 0 -39 4 -43 35 -38 44 9 44 67 0 75
-14 3 -27 3 -30 0z m48 -24 c6 -19 -3 -38 -19 -38 -8 0 -14 10 -14 25 0 26 25
35 33 13z"/>
<path d="M2687 213 c-14 -13 -7 -71 9 -77 23 -9 34 -7 34 4 0 6 -7 10 -15 10
-18 0 -20 16 -2 23 10 4 10 6 0 6 -19 1 -16 21 3 21 8 0 12 5 9 10 -7 11 -28
13 -38 3z"/>
<path d="M3080 203 c-8 -13 -13 -14 -16 -5 -12 28 -20 9 -10 -23 6 -19 13 -35
16 -35 6 0 30 73 25 78 -2 2 -8 -5 -15 -15z"/>
<path d="M3371 190 c-1 -44 15 -63 41 -49 19 10 26 69 8 69 -5 0 -10 -14 -10
-31 0 -42 -23 -33 -31 12 l-6 34 -2 -35z"/>
<path d="M4180 205 c-10 -12 -16 -13 -26 -4 -10 8 -14 8 -14 1 0 -6 5 -14 10
-17 6 -3 10 -16 10 -28 0 -16 5 -12 20 18 21 41 21 55 0 30z"/>
<path d="M1539 176 c11 -22 17 -28 19 -17 2 9 8 20 13 26 15 15 10 29 -5 16
-10 -8 -16 -9 -21 -1 -16 25 -21 7 -6 -24z"/>
<path d="M1684 186 c-8 -34 2 -46 36 -46 33 0 50 31 30 55 -20 24 -59 19 -66
-9z m56 -11 c0 -29 -34 -36 -44 -9 -8 21 1 34 25 34 14 0 19 -7 19 -25z"/>
<path d="M1850 180 c0 -18 7 -33 18 -39 26 -14 42 5 41 44 l-1 30 -7 -29 c-9
-41 -31 -46 -31 -7 0 17 -4 31 -10 31 -5 0 -10 -13 -10 -30z"/>
<path d="M2000 176 c0 -35 14 -49 23 -23 3 8 9 6 19 -7 14 -18 15 -17 14 20
-1 35 -4 39 -28 42 -26 3 -28 1 -28 -32z m40 14 c0 -5 -4 -10 -10 -10 -5 0
-10 5 -10 10 0 6 5 10 10 10 6 0 10 -4 10 -10z"/>
<path d="M2423 170 c0 -25 2 -35 4 -22 2 12 2 32 0 45 -2 12 -4 2 -4 -23z"/>
<path d="M3201 192 c-13 -25 5 -52 34 -52 13 0 28 8 34 17 13 25 -5 53 -34 53
-13 0 -29 -8 -34 -18z m57 -15 c4 -20 -25 -34 -40 -19 -15 15 -1 44 19 40 10
-2 19 -11 21 -21z"/>
<path d="M3520 176 c0 -20 5 -36 11 -36 5 0 7 5 4 10 -3 6 -2 10 4 10 5 0 13
-4 16 -10 12 -19 20 -10 20 23 0 28 -4 32 -27 35 -26 3 -28 1 -28 -32z m40 14
c0 -5 -7 -10 -16 -10 -8 0 -12 5 -9 10 3 6 10 10 16 10 5 0 9 -4 9 -10z"/>
<path d="M3793 175 c12 -40 23 -44 33 -12 l7 22 10 -22 c14 -31 23 -29 36 8
13 39 13 39 1 39 -5 0 -10 -7 -10 -15 0 -8 -4 -15 -10 -15 -5 0 -10 7 -10 15
0 23 -20 18 -29 -7 l-8 -23 -7 23 c-4 12 -11 22 -16 22 -4 0 -3 -16 3 -35z"/>
<path d="M3982 185 c-17 -37 -16 -40 23 -41 40 -1 40 -2 20 36 -19 37 -28 38
-43 5z m24 -22 c-10 -10 -19 5 -10 18 6 11 8 11 12 0 2 -7 1 -15 -2 -18z"/>
<path d="M2821 134 c0 -11 3 -14 6 -6 3 7 2 16 -1 19 -3 4 -6 -2 -5 -13z"/>
</g>
</svg>
